<?xml version="1.0" encoding="UTF-8"?>
<!DOCTYPE svg PUBLIC "-//W3C//DTD SVG 1.1//EN" "http://www.w3.org/Graphics/SVG/1.1/DTD/svg11.dtd">
<svg xmlns="http://www.w3.org/2000/svg" version="1.1" width="625px" height="625px" style="shape-rendering:geometricPrecision; text-rendering:geometricPrecision; image-rendering:optimizeQuality; fill-rule:evenodd; clip-rule:evenodd" xmlns:xlink="http://www.w3.org/1999/xlink">
<g><path style="opacity:1" fill="#603a00" d="M -0.5,-0.5 C 207.833,-0.5 416.167,-0.5 624.5,-0.5C 624.5,207.833 624.5,416.167 624.5,624.5C 416.167,624.5 207.833,624.5 -0.5,624.5C -0.5,416.167 -0.5,207.833 -0.5,-0.5 Z"/></g>
<g><path style="opacity:1" fill="#020000" d="M 78.5,222.5 C 88.5381,222.577 98.3715,223.91 108,226.5C 108.667,231.167 108.667,235.833 108,240.5C 98.6772,235.924 88.8439,234.424 78.5,236C 72.4172,238.412 71.0839,242.412 74.5,248C 83.368,251.042 92.368,253.709 101.5,256C 112.089,261.796 115.589,270.629 112,282.5C 110.264,289.237 106.097,293.737 99.5,296C 85.2142,299.86 71.2142,299.027 57.5,293.5C 56.1667,288.833 56.1667,284.167 57.5,279.5C 68.2876,285.384 79.621,286.884 91.5,284C 96.726,279.585 96.726,275.251 91.5,271C 83.5,268.667 75.5,266.333 67.5,264C 57.9297,258.658 54.0964,250.492 56,239.5C 60.0121,229.09 67.5121,223.424 78.5,222.5 Z"/></g>
<g><path style="opacity:1" fill="#020000" d="M 532.5,222.5 C 542.538,222.577 552.371,223.91 562,226.5C 562.667,231.167 562.667,235.833 562,240.5C 552.677,235.924 542.844,234.424 532.5,236C 526.417,238.412 525.084,242.412 528.5,248C 537.368,251.042 546.368,253.709 555.5,256C 566.089,261.796 569.589,270.629 566,282.5C 564.264,289.237 560.097,293.737 553.5,296C 539.214,299.86 525.214,299.027 511.5,293.5C 510.167,288.833 510.167,284.167 511.5,279.5C 522.288,285.384 533.621,286.884 545.5,284C 550.726,279.585 550.726,275.251 545.5,271C 537.5,268.667 529.5,266.333 521.5,264C 511.93,258.658 508.096,250.492 510,239.5C 514.012,229.09 521.512,223.424 532.5,222.5 Z"/></g>
<g><path style="opacity:1" fill="#010000" d="M 148.5,224.5 C 156.278,223.889 163.778,224.556 171,226.5C 179.642,250.094 188.475,273.594 197.5,297C 191.175,297.5 184.842,297.666 178.5,297.5C 177.576,293.059 176.242,288.725 174.5,284.5C 164.517,283.334 154.517,283.168 144.5,284C 142.833,288.333 141.167,292.667 139.5,297C 133.472,297.83 127.472,297.664 121.5,296.5C 130.508,272.471 139.508,248.471 148.5,224.5 Z"/></g>
<g><path style="opacity:1" fill="#010000" d="M 270.5,297.5 C 270.667,279.83 270.5,262.164 270,244.5C 268.961,245.244 268.461,246.244 268.5,247.5C 262.944,259.277 257.944,271.277 253.5,283.5C 249.233,283.797 245.066,283.464 241,282.5C 235.667,269.833 230.333,257.167 225,244.5C 224.5,262.164 224.333,279.83 224.5,297.5C 218.5,297.5 212.5,297.5 206.5,297.5C 206.5,273.167 206.5,248.833 206.5,224.5C 214.507,224.334 222.507,224.5 230.5,225C 236.129,237.76 241.629,250.593 247,263.5C 253.052,250.729 258.552,237.729 263.5,224.5C 271.5,224.5 279.5,224.5 287.5,224.5C 287.5,248.833 287.5,273.167 287.5,297.5C 281.833,297.5 276.167,297.5 270.5,297.5 Z"/></g>
<g><path style="opacity:1" fill="#020000" d="M 306.5,224.5 C 318.171,224.333 329.838,224.5 341.5,225C 361.666,226.813 369.499,237.646 365,257.5C 361.952,264.947 356.452,269.447 348.5,271C 340.881,272.205 333.214,272.705 325.5,272.5C 325.5,280.833 325.5,289.167 325.5,297.5C 319.167,297.5 312.833,297.5 306.5,297.5C 306.5,273.167 306.5,248.833 306.5,224.5 Z"/></g>
<g><path style="opacity:1" fill="#020100" d="M 379.5,224.5 C 385.833,224.5 392.167,224.5 398.5,224.5C 398.5,244.167 398.5,263.833 398.5,283.5C 409.5,283.5 420.5,283.5 431.5,283.5C 431.5,288.167 431.5,292.833 431.5,297.5C 414.167,297.5 396.833,297.5 379.5,297.5C 379.5,273.167 379.5,248.833 379.5,224.5 Z"/></g>
<g><path style="opacity:1" fill="#020000" d="M 443.5,224.5 C 460.5,224.5 477.5,224.5 494.5,224.5C 494.5,229.167 494.5,233.833 494.5,238.5C 483.833,238.5 473.167,238.5 462.5,238.5C 462.5,243.167 462.5,247.833 462.5,252.5C 472.5,252.5 482.5,252.5 492.5,252.5C 492.5,257.167 492.5,261.833 492.5,266.5C 482.5,266.5 472.5,266.5 462.5,266.5C 462.5,272.167 462.5,277.833 462.5,283.5C 473.5,283.5 484.5,283.5 495.5,283.5C 495.5,288.167 495.5,292.833 495.5,297.5C 478.167,297.5 460.833,297.5 443.5,297.5C 443.5,273.167 443.5,248.833 443.5,224.5 Z"/></g>
<g><path style="opacity:1" fill="#5f3a00" d="M 325.5,237.5 C 330.511,237.334 335.511,237.501 340.5,238C 345.186,239.857 347.519,243.357 347.5,248.5C 347.519,253.643 345.186,257.143 340.5,259C 335.511,259.499 330.511,259.666 325.5,259.5C 325.5,252.167 325.5,244.833 325.5,237.5 Z"/></g>
<g><path style="opacity:1" fill="#5d3800" d="M 158.5,241.5 C 159.117,241.611 159.617,241.944 160,242.5C 162.975,251.758 166.141,260.925 169.5,270C 162.842,270.5 156.175,270.666 149.5,270.5C 152.302,260.762 155.302,251.095 158.5,241.5 Z"/></g>
<g><path style="opacity:1" fill="#452800" d="M 270.5,297.5 C 269.833,280.833 269.167,264.167 268.5,247.5C 268.461,246.244 268.961,245.244 270,244.5C 270.5,262.164 270.667,279.83 270.5,297.5 Z"/></g>
</svg>
