<?xml version="1.0" standalone="no"?>
<!DOCTYPE svg PUBLIC "-//W3C//DTD SVG 20010904//EN"
 "http://www.w3.org/TR/2001/REC-SVG-20010904/DTD/svg10.dtd">
<svg version="1.0" xmlns="http://www.w3.org/2000/svg"
 width="625.000000pt" height="625.000000pt" viewBox="0 0 625.000000 625.000000"
 preserveAspectRatio="xMidYMid meet">

<g transform="translate(0.000000,625.000000) scale(0.100000,-0.100000)"
fill="#000000" stroke="none">
<path d="M27 6173 c-4 -3 -7 -1371 -7 -3040 l0 -3033 3095 0 3095 0 0 3040 0
3040 -3088 0 c-1699 0 -3092 -3 -3095 -7z m1311 -2428 l52 -16 0 -45 c0 -40
-2 -45 -17 -39 -193 81 -363 44 -363 -79 0 -74 30 -95 186 -131 119 -29 147
-41 186 -82 71 -74 77 -199 15 -284 -62 -86 -250 -112 -422 -58 l-65 20 0 50
c0 37 3 50 13 46 111 -49 149 -61 217 -64 64 -4 82 -1 120 19 114 59 98 202
-28 242 -26 8 -74 20 -106 26 -129 26 -199 80 -211 165 -19 121 39 206 165
242 55 16 184 10 258 -12z m4160 0 l52 -16 0 -45 c0 -40 -2 -45 -17 -39 -193
81 -363 44 -363 -79 0 -74 30 -95 186 -131 119 -29 147 -41 186 -82 71 -74 77
-199 15 -284 -62 -86 -250 -112 -422 -58 l-65 20 0 50 c0 37 3 50 13 46 111
-49 149 -61 217 -64 64 -4 82 -1 120 19 114 59 98 202 -28 242 -26 8 -74 20
-106 26 -129 26 -199 80 -211 165 -19 121 39 206 165 242 55 16 184 10 258
-12z m-3421 -375 c78 -206 143 -376 143 -378 0 -2 -23 -2 -51 0 l-52 3 -34 98
-35 97 -173 0 -172 0 -34 -100 -34 -100 -52 0 -52 0 13 38 c11 28 217 571 267
700 8 21 14 23 66 20 l57 -3 143 -375z m503 125 c52 -140 97 -251 101 -247 4
4 49 118 100 255 l93 247 73 0 73 0 0 -380 0 -380 -45 0 -45 0 0 333 c0 195
-4 326 -9 317 -5 -8 -47 -116 -94 -240 -47 -124 -89 -233 -93 -243 -5 -15 -16
-17 -57 -15 l-50 3 -96 254 -96 255 -3 -332 -2 -332 -50 0 -50 0 0 380 0 380
78 0 77 0 95 -255z m1017 231 c165 -70 165 -333 0 -401 -28 -12 -80 -20 -154
-23 l-113 -5 0 -153 0 -154 -50 0 -50 0 0 381 0 381 163 -4 c126 -3 171 -8
204 -22z m363 -316 l0 -340 185 0 185 0 0 -40 0 -40 -235 0 -235 0 0 380 0
380 50 0 50 0 0 -340z m960 300 l0 -40 -190 0 -190 0 0 -115 0 -115 180 0 180
0 0 -40 0 -40 -180 0 -180 0 0 -145 0 -145 195 0 195 0 0 -40 0 -40 -245 0
-245 0 0 380 0 380 240 0 240 0 0 -40z"/>
<path d="M1847 3573 c-75 -198 -107 -287 -107 -294 0 -5 62 -9 139 -9 l138 0
-66 180 c-37 98 -70 182 -73 185 -3 3 -17 -24 -31 -62z"/>
<path d="M3330 3525 l0 -145 93 0 c100 0 140 15 172 64 22 33 22 129 0 162
-32 49 -72 64 -172 64 l-93 0 0 -145z"/>
</g>
</svg>
