<?xml version="1.0" encoding="UTF-8"?>
<svg version="1.0" viewBox="0 0 426.73 746.26" xmlns="http://www.w3.org/2000/svg">
<g transform="translate(579.31 268.72)">
<g stroke="#000">
<path d="m-367.54-263.72c-30.79 24.5-267.46 229.89-88.19 623.22h179.25c179.27-393.33-57.39-598.69-88.19-623.19l-2.87-0.03z" fill="#ececec" fill-rule="evenodd" stroke-width="10"/>
<path d="m-486.89-102.24 43.43-79.8 60.61-68.69 17.17-13.14 64.65 67.68 50.51 81.83 4.04 17.169-241.42-1.011" fill="#f00" fill-rule="evenodd" stroke-width="1px"/>
<path d="m-511.14 201.81s-107.07-1.33-42.42 270.72c0 0 6.06-227.16 62.63-199.15" fill="#f00" fill-rule="evenodd" stroke-width="10"/>
<path d="m-220.76 201.81s107.08-1.33 42.43 270.72c0 0-6.06-227.16-62.63-199.15" fill="#f00" fill-rule="evenodd" stroke-width="10"/>
<path d="m-367.54-263.72c-30.79 24.5-267.46 229.89-88.19 623.22h179.25c179.27-393.33-57.39-598.69-88.19-623.19l-2.87-0.03z" fill="none" stroke-width="10"/>
<path d="m-486.89-100.22h237.38" fill="none" stroke-width="10"/>
<path transform="translate(-69.118 -17.919)" d="m-233.35 70.494a63.64 63.64 0 1 1-127.27 0 63.64 63.64 0 1 1 127.27 0z" fill="#b3b3b3" stroke-linecap="round" stroke-width="8"/>
<path transform="matrix(.65079 0 0 .65079 -172.83 6.6981)" d="m-233.35 70.494a63.64 63.64 0 1 1-127.27 0 63.64 63.64 0 1 1 127.27 0z" fill="#80e5ff" stroke-linecap="round" stroke-width="12.293"/>
<path d="m-478.81 304.85h224.25" fill="none" stroke-width="10"/>
<path d="m-375.19 199.79h18.18v272.74h-18.18v-272.74z" fill="#f00" stroke-linecap="round" stroke-width="10"/>
<path transform="matrix(.65079 0 0 .65079 -172.83 6.6981)" d="m-233.35 70.494a63.64 63.64 0 1 1-127.27 0 63.64 63.64 0 1 1 127.27 0z" fill="none" stroke-linecap="round" stroke-width="12.293"/>
<path d="m-220.76 201.81s107.08-1.33 42.43 270.72c0 0-6.06-227.16-62.63-199.15" fill="none" stroke-width="10"/>
<path d="m-511.14 201.81s-107.07-1.33-42.42 270.72c0 0 6.06-227.16 62.63-199.15" fill="none" stroke-width="10"/>
</g>
</g>
</svg>
