<?xml version="1.0" encoding="UTF-8"?>
<svg enable-background="new 0 0 430.01 430.01" version="1.1" viewBox="0 0 430.01 430.01" xmlns="http://www.w3.org/2000/svg">
<g transform="matrix(-1 0 0 1 412.67 0)">
<path d="m49.56 376.01c-0.06 12.17 4.82 23.22 12.76 31.23s18.94 13 31.11 13.06 23.22-4.82 31.23-12.76 13-18.93 13.06-31.1v-0.01-0.44c-0.06-11.99-4.92-22.86-12.76-30.78-7.93-8.02-18.93-13.01-31.11-13.07-11.33-0.05-21.67 4.17-29.51 11.16-0.59 0.52-1.17 1.06-1.72 1.61-8.02 7.94-13 18.93-13.06 31.1zm44.02 12.49c-6.78-0.03-12.25-5.55-12.22-12.34 0.03-6.78 5.56-12.25 12.34-12.22 6.78 0.04 12.25 5.56 12.22 12.34s-5.56 12.26-12.34 12.22z" fill="#ccc"/>
<rect x="68.34" y="177" width="166.67" height="51.34" fill="#F73E3E"/>
<path d="m81.36 376.16c-0.03 6.79 5.44 12.31 12.22 12.34 6.78 0.04 12.31-5.44 12.34-12.22s-5.44-12.3-12.22-12.34c-6.78-0.03-12.31 5.44-12.34 12.22z" fill="#F9911E"/>
<rect x="87.01" y="280.34" width="55.92" height="33.33" fill="#F73E3E"/>
<rect x="87.01" y="265.67" width="55.92" height="14.67" fill="#F73E3E"/>
<rect x="87.01" y="249" width="55.92" height="16.67" fill="#F73E3E"/>
<path d="m115.53 86.086-35.94 35.94c19.85 19.85 52.04 19.85 71.89 0s19.85-52.04 0-71.89l-35.94 35.95h-0.01z" fill="#E6E6E6"/>
<rect x="142.93" y="265.67" width="18.74" height="14.67" fill="#23464F"/>
<rect x="142.93" y="280.34" width="18.74" height="33.33" fill="#23464F"/>
<rect x="161.67" y="280.34" width="55.93" height="33.33" fill="#F73E3E"/>
<rect x="161.67" y="265.67" width="55.93" height="14.67" fill="#F73E3E"/>
<rect x="161.67" y="249" width="55.93" height="16.67" fill="#F73E3E"/>
<path d="m168.68 376.02c-0.06 12.17 4.82 23.21 12.76 31.22s18.94 13 31.11 13.06 23.22-4.82 31.23-12.76 13-18.93 13.06-31.1v-0.01-0.44c-0.06-11.99-4.92-22.86-12.76-30.78-7.93-8.02-18.93-13.01-31.11-13.07-12.17-0.06-23.22 4.83-31.23 12.77-8.02 7.94-13 18.93-13.06 31.1v0.01zm44.02 12.48c-6.78-0.03-12.25-5.55-12.22-12.34 0.03-6.78 5.56-12.25 12.34-12.22 6.78 0.04 12.25 5.56 12.22 12.34s-5.56 12.26-12.34 12.22z" fill="#ccc"/>
<path d="m200.48 376.16c-0.03 6.79 5.44 12.31 12.22 12.34 6.78 0.04 12.31-5.44 12.34-12.22s-5.44-12.3-12.22-12.34c-6.78-0.03-12.31 5.44-12.34 12.22z" fill="#F9911E"/>
<polygon points="217.6 313.67 361.47 313.67 378.76 313.67 378.76 228.34 341.34 228.34 270.67 228.34 235.01 228.34 68.34 228.34 46.76 228.34 46.76 313.67 64.34 313.67 87.01 313.67 87.01 280.34 87.01 265.67 87.01 249 142.93 249 142.93 265.67 161.67 265.67 161.67 249 217.6 249 217.6 265.67 217.6 280.34" fill="#23464F"/>
<polygon points="270.67 207.67 270.67 228.34 341.34 228.34 341.34 207.67 321.67 207.67 290.34 207.67" fill="#F73E3E"/>
<path d="m331.67 420.3c12.17 0.06 23.22-4.82 31.23-12.76s13-18.93 13.06-31.1v-0.01c0.06-12.17-4.82-23.22-12.76-31.23-0.56-0.57-1.14-1.12-1.73-1.65-7.77-7.04-18.06-11.35-29.37-11.41h-0.01c-12.17-0.05-23.22 4.83-31.23 12.77-8.02 7.94-13 18.93-13.06 31.1v0.01c-0.06 12.17 4.82 23.21 12.76 31.22s18.94 13 31.11 13.06zm0.15-31.8c-6.78-0.03-12.25-5.55-12.22-12.34 0.03-6.78 5.56-12.25 12.34-12.22 6.78 0.04 12.25 5.56 12.22 12.34s-5.56 12.26-12.34 12.22z" fill="#ccc"/>
<rect x="290.34" y="42.34" width="31.33" height="165.33" fill="#E6E6E6"/>
<polygon points="290.34 5 290.34 42.34 321.67 42.34 353.67 42.34 353.67 35.67 353.67 11.67 353.67 5" fill="#F73E3E"/>
<path d="m319.6 376.16c-0.03 6.79 5.44 12.31 12.22 12.34 6.78 0.04 12.31-5.44 12.34-12.22s-5.44-12.3-12.22-12.34c-6.78-0.03-12.31 5.44-12.34 12.22z" fill="#F9911E"/>
<rect x="353.67" y="11.67" width="19.34" height="24" fill="#F73E3E"/>
<path d="m361.47 313.67h-297.13v29.63c7.84-6.99 18.18-11.21 29.51-11.16 12.18 0.06 23.18 5.05 31.11 13.07 7.84 7.92 12.7 18.79 12.76 30.78l30.96 0.03v-0.01c0.06-12.17 5.04-23.16 13.06-31.1 8.01-7.94 19.06-12.83 31.23-12.77 12.18 0.06 23.18 5.05 31.11 13.07 7.84 7.92 12.7 18.79 12.76 30.78l30.96 0.03v-0.01c0.06-12.17 5.04-23.16 13.06-31.1 8.01-7.94 19.06-12.82 31.23-12.77h0.01c11.31 0.06 21.6 4.37 29.37 11.41v-29.88z" fill="#999"/>
<path d="m331.9 393.5h-0.104c-9.519-0.042-17.232-7.831-17.19-17.362 0.042-9.499 7.79-17.198 17.284-17.198h0.077c9.528 0.056 17.24 7.845 17.199 17.361-0.021 4.619-1.841 8.953-5.125 12.203-3.259 3.225-7.566 4.996-12.141 4.996zm-7.295-17.317c-0.018 4.017 3.23 7.299 7.242 7.317h0.044c1.931 0 3.743-0.746 5.115-2.103 1.384-1.37 2.15-3.195 2.159-5.14 0.018-4.011-3.235-7.294-7.25-7.317h-0.032c-3.995 0-7.261 3.242-7.278 7.243z" fill="#333"/>
<path d="m287.17 381.02-30.336-0.03c-2.762-3e-3 -4.998-2.244-4.995-5.005 3e-3 -2.76 2.241-4.995 5-4.995h5e-3l30.327 0.03c2.762 0 5 2.239 5 5s-2.239 5-5.001 5z" fill="#333"/>
<path d="m212.77 425.3h-0.249c-13.105-0.065-25.406-5.229-34.637-14.54-9.227-9.309-14.273-21.655-14.209-34.764 0.064-13.119 5.228-25.416 14.54-34.637 9.256-9.175 21.51-14.219 34.526-14.219h0.248c13.122 0.065 25.425 5.233 34.642 14.554 9.094 9.187 14.139 21.358 14.204 34.27v0.466c-0.065 13.135-5.229 25.432-14.541 34.661-9.248 9.169-21.501 14.209-34.524 14.209zm-0.027-88.16c-10.363 0-20.117 4.016-27.488 11.322l-2e-3 2e-3c-7.414 7.341-11.526 17.133-11.577 27.571-0.051 10.447 3.966 20.275 11.311 27.686 7.352 7.416 17.147 11.529 27.584 11.58h0.198c10.37 0 20.123-4.012 27.486-11.311 7.417-7.351 11.529-17.143 11.581-27.574v-0.425c-0.052-10.254-4.069-19.945-11.313-27.262-7.339-7.421-17.133-11.536-27.581-11.587-0.066-2e-3 -0.133-2e-3 -0.199-2e-3z" fill="#333"/>
<path d="m212.78 393.5h-0.104c-9.518-0.042-17.232-7.831-17.191-17.361v-1e-3c0.042-9.499 7.79-17.198 17.284-17.198h0.077c9.528 0.056 17.24 7.845 17.199 17.361-0.021 4.619-1.841 8.953-5.125 12.204-3.258 3.224-7.565 4.995-12.14 4.995zm-7.296-17.317c-0.017 4.017 3.232 7.299 7.243 7.317 1.953-5e-3 3.775-0.736 5.157-2.103 1.385-1.37 2.151-3.195 2.16-5.14 0.018-4.011-3.235-7.294-7.25-7.317h-0.032c-3.994 0-7.26 3.242-7.278 7.243z" fill="#333"/>
<path d="m167.41 381.02-29.694-0.03c-2.762-3e-3 -4.998-2.244-4.995-5.005 3e-3 -2.76 2.241-4.995 5-4.995h5e-3l29.685 0.03c2.762 0 5 2.239 5 5s-2.239 5-5.001 5z" fill="#333"/>
<path d="m261.54 381.46h-0.032l-2.728-0.04c-2.761-0.012-4.99-2.26-4.979-5.021 0.012-2.754 2.248-4.979 5-4.979h0.021l2.747 0.04c2.762 0.018 4.986 2.271 4.969 5.032-0.017 2.75-2.252 4.968-4.998 4.968z" fill="#333"/>
<path d="m93.654 425.3h-0.249c-13.105-0.065-25.406-5.229-34.637-14.54-9.228-9.309-14.273-21.658-14.209-34.774 0.065-13.111 5.23-25.409 14.543-34.628 0.579-0.58 1.235-1.194 1.931-1.808 8.974-8.001 20.558-12.41 32.619-12.41h0.22c13.124 0.065 25.427 5.233 34.644 14.554 9.095 9.188 14.14 21.359 14.204 34.271v0.465c-0.064 13.133-5.228 25.43-14.54 34.661-9.25 9.169-21.503 14.209-34.526 14.209zm-39.094-49.266c-0.051 10.443 3.966 20.275 11.311 27.686 7.352 7.416 17.147 11.529 27.584 11.58h0.198c10.369 0 20.123-4.012 27.488-11.312 7.416-7.351 11.528-17.144 11.579-27.573v-0.426c-0.051-10.253-4.068-19.944-11.313-27.262-7.339-7.421-17.133-11.536-27.581-11.587h-0.175c-9.603 0-18.823 3.509-25.983 9.892-0.559 0.493-1.06 0.962-1.51 1.413-7.434 7.358-11.547 17.15-11.598 27.589z" fill="#333"/>
<path d="m93.655 393.5h-0.104c-9.518-0.042-17.232-7.831-17.191-17.361v-1e-3c0.042-9.499 7.79-17.198 17.285-17.198h0.077c9.529 0.056 17.24 7.845 17.198 17.362-0.021 4.618-1.841 8.952-5.125 12.203-3.258 3.224-7.566 4.995-12.14 4.995zm-7.296-17.317c-0.017 4.017 3.232 7.299 7.243 7.317h0.044c1.931 0 3.742-0.746 5.113-2.103 1.385-1.37 2.151-3.195 2.16-5.14 0.018-4.011-3.234-7.294-7.249-7.317h-0.032c-3.995 0-7.261 3.242-7.279 7.243z" fill="#333"/>
<path d="m142.42 381.46h-0.032l-3.008-0.04c-2.761-0.012-4.99-2.26-4.979-5.021 0.012-2.754 2.248-4.979 5-4.979h0.021l3.027 0.04c2.762 0.018 4.986 2.271 4.969 5.032-0.017 2.75-2.252 4.968-4.998 4.968z" fill="#333"/>
<path d="m383.76 313.67h-10v-80.33h-32.42v-10h37.42c2.762 0 5 2.239 5 5v85.33z" fill="#333"/>
<rect x="235.01" y="223.34" width="35.66" height="10" fill="#333"/>
<path d="m51.76 313.67h-10v-85.33c0-2.761 2.238-5 5-5h21.58v10h-16.58v80.33z" fill="#333"/>
<rect x="285.34" y="42.34" width="10" height="165.33" fill="#333"/>
<path d="m321.67 212.67c-2.762 0-5-2.637-5-5.889v-135.84c0-3.252 2.238-5.889 5-5.889s5 2.637 5 5.889v135.84c0 3.252-2.238 5.889-5 5.889z" fill="#333"/>
<path d="m321.67 78.67c-2.762 0-5-2.239-5-5v-31.33c0-2.761 2.238-5 5-5s5 2.239 5 5v31.33c0 2.761-2.238 5-5 5z" fill="#333"/>
<path d="m341.34 233.34h-70.67c-2.762 0-5-2.239-5-5v-20.67c0-2.761 2.238-5 5-5h70.67c2.762 0 5 2.239 5 5v20.67c0 2.761-2.238 5-5 5zm-65.67-10h60.67v-10.67h-60.67v10.67z" fill="#333"/>
<path d="m353.67 16.67c-2.762 0-5-2.239-5-5v-1.67h-43.016c-2.762 0-5-2.239-5-5s2.238-5 5-5h48.016c2.762 0 5 2.239 5 5v6.67c0 2.761-2.238 5-5 5z" fill="#333"/>
<path d="m353.67 47.34h-63.33c-2.762 0-5-2.239-5-5v-37.34c0-2.761 2.238-5 5-5h16c2.762 0 5 2.239 5 5s-2.238 5-5 5h-11v27.34h53.33v-1.67c0-2.761 2.238-5 5-5s5 2.239 5 5v6.67c0 2.761-2.238 5-5 5z" fill="#333"/>
<path d="m235.01 233.34h-166.67c-2.762 0-5-2.239-5-5v-51.34c0-2.761 2.238-5 5-5h148.3c2.762 0 5.348 2.402 5.348 5.163s-2.586 4.837-5.348 4.837h-143.3v41.34h156.67v-41.34h-17.67c-2.762 0-5-2.239-5-5s2.238-5 5-5h22.67c2.762 0 5 2.239 5 5v51.34c0 2.761-2.239 5-5 5z" fill="#333"/>
<path d="m115.54 141.91c-14.915 0-28.937-5.808-39.48-16.352-1.953-1.953-1.953-5.119 0-7.071l35.939-35.94c1.951-1.952 5.119-1.952 7.07 0 1.953 1.953 1.953 5.119 0 7.071l-32.214 32.215c8.107 6.53 18.123 10.077 28.685 10.077 12.243 0 23.753-4.767 32.409-13.423s13.423-20.166 13.423-32.409-4.767-23.753-13.423-32.409c-1.953-1.953-1.953-5.119 0-7.071 1.951-1.952 5.119-1.952 7.07 0 10.545 10.545 16.353 24.566 16.353 39.48 0 14.915-5.808 28.936-16.353 39.48-10.543 10.544-24.565 16.352-39.479 16.352z" fill="#333"/>
<path d="m115.54 91.086c-1.279 0-2.559-0.488-3.535-1.464-1.953-1.952-1.953-5.118-1e-3 -7.071l33.829-34.477c1.953-1.953 5.118-1.953 7.071-1e-3s1.953 5.118 1e-3 7.071l-33.829 34.477c-0.976 0.977-2.257 1.465-3.536 1.465z" fill="#333"/>
<path d="m115.54 91.086h-0.011c-1.327 0-2.599-0.527-3.537-1.466l-14.05-14.06c-1.951-1.953-1.95-5.119 3e-3 -7.071s5.118-1.952 7.071 2e-3l13.956 13.966c0.962 0.911 1.562 2.2 1.562 3.628 0 2.762-2.232 5.001-4.994 5.001z" fill="#333"/>
<path d="m407.67 318.67h-46.2c-2.762 0-5-2.239-5-5s2.238-5 5-5h46.2c2.762 0 5 2.239 5 5s-2.238 5-5 5z" fill="#333"/>
<path d="m64.34 318.67h-42c-2.762 0-5-2.239-5-5s2.238-5 5-5h42c2.762 0 5 2.239 5 5s-2.238 5-5 5z" fill="#333"/>
<path d="m361.47 348.55c-2.762 0-5-2.239-5-5v-24.88h-62.796c-2.762 0-5-2.239-5-5s2.238-5 5-5h67.796c2.762 0 5 2.239 5 5v29.88c0 2.761-2.239 5-5 5z" fill="#333"/>
<path d="m301.15 318.67h-51.105c-2.762 0-5-2.239-5-5s2.238-5 5-5h51.105c2.762 0 5 2.239 5 5s-2.238 5-5 5z" fill="#333"/>
<path d="m258.34 318.67h-40.74c-2.762 0-5-2.239-5-5s2.238-5 5-5h40.74c2.762 0 5 2.239 5 5s-2.238 5-5 5z" fill="#333"/>
<path d="m161.67 318.67h-18.74c-2.762 0-5-2.239-5-5s2.238-5 5-5h18.74c2.762 0 5 2.239 5 5s-2.238 5-5 5z" fill="#333"/>
<path d="m64.34 348.3c-2.762 0-5-2.239-5-5v-29.63c0-2.761 2.238-5 5-5h22.67c2.762 0 5 2.239 5 5s-2.238 5-5 5h-17.67v24.63c0 2.761-2.238 5-5 5z" fill="#333"/>
<path d="m142.93 318.67h-55.92c-2.762 0-5-2.239-5-5v-64.67c0-2.761 2.238-5 5-5h55.92c2.762 0 5 2.239 5 5v64.67c0 2.761-2.239 5-5 5zm-50.92-10h45.92v-54.67h-45.92v54.67z" fill="#333"/>
<path d="m217.6 318.67h-55.93c-2.762 0-5-2.239-5-5v-64.67c0-2.761 2.238-5 5-5h55.93c2.762 0 5 2.239 5 5v64.67c0 2.761-2.239 5-5 5zm-50.93-10h45.93v-54.67h-45.93v54.67z" fill="#333"/>
<path d="m373.01 40.67h-19.34c-2.762 0-5-2.239-5-5v-24c0-2.761 2.238-5 5-5h19.34c2.762 0 5 2.239 5 5v24c0 2.761-2.239 5-5 5zm-14.34-10h9.34v-14h-9.34v14z" fill="#333"/>
<path d="m362.67 299.67c-2.209 0-4-1.791-4-4v-8.667c0-2.209 1.791-4 4-4s4 1.791 4 4v8.667c0 2.209-1.791 4-4 4z" fill="#fff"/>
<path d="m362.67 273c-2.209 0-4-1.791-4-4v-25.333c0-2.209 1.791-4 4-4s4 1.791 4 4v25.333c0 2.209-1.791 4-4 4z" fill="#fff"/>
<path d="m226.64 270.67h-148.67c-2.762 0-5-2.239-5-5s2.238-5 5-5h148.67c2.762 0 5 2.239 5 5s-2.239 5-5 5z" fill="#333"/>
<path d="m226.64 285.34h-148.67c-2.762 0-5-2.239-5-5s2.238-5 5-5h148.67c2.762 0 5 2.239 5 5s-2.239 5-5 5z" fill="#333"/>
<path d="m176.67 182h-47c-1.656 0-3.206-0.82-4.137-2.191s-1.122-3.113-0.511-4.653l21.807-54.974c0.738-1.861 2.516-3.103 4.518-3.155 0.043-1e-3 0.087-1e-3 0.131-1e-3 1.95 0 3.729 1.136 4.545 2.917l25.193 54.974c0.709 1.548 0.582 3.351-0.338 4.784-0.92 1.432-2.505 2.299-4.208 2.299zm-39.638-10h31.847l-17.071-37.25-14.776 37.25z" fill="#333"/>
<path d="m332.77 425.8h-0.249c-13.105-0.065-25.406-5.229-34.637-14.54-9.227-9.309-14.273-21.655-14.209-34.764 0.064-13.119 5.228-25.416 14.54-34.637 9.256-9.175 21.51-14.219 34.526-14.219h0.248c13.122 0.065 25.425 5.233 34.642 14.554 9.094 9.187 14.139 21.358 14.204 34.27v0.466c-0.065 13.135-5.229 25.432-14.541 34.661-9.248 9.169-21.501 14.209-34.524 14.209zm-0.027-88.16c-10.363 0-20.117 4.016-27.488 11.322l-2e-3 2e-3c-7.414 7.341-11.526 17.133-11.577 27.571-0.051 10.447 3.966 20.275 11.311 27.686 7.352 7.416 17.147 11.529 27.584 11.58h0.198c10.37 0 20.123-4.012 27.486-11.311 7.417-7.351 11.529-17.143 11.581-27.574v-0.425c-0.052-10.254-4.069-19.945-11.313-27.262-7.339-7.421-17.133-11.536-27.581-11.587-0.066-2e-3 -0.133-2e-3 -0.199-2e-3z" fill="#333"/>
</g>
</svg>
