<?xml version="1.0" encoding="UTF-8"?>
<svg version="1.1" viewBox="0 0 144 144" xmlns="http://www.w3.org/2000/svg">
<g transform="matrix(12.529 0 0 11.835 -22.071 -9.6007)" style="">
<path d="m5.2835 7.0218-0.29257-1.0054 0.52446-0.80992 0.65011-0.65011 1.5519-0.9437 0.56622 0.1468 1.3841 1.5519 0.33554 0.69377s-1.9084 4.8636-2.1181 4.8846c-0.20971 0.02097-1.9923-0.02097-1.9923-0.02097z" fill="#e35b42" fill-rule="evenodd"/>
<path d="m8.4844 1.0002c-0.1464 5e-3 -0.2835 0.0731-0.375 0.1875l-1.6602 2.0742-1.6054-1.5234c-0.4359-0.4011-1.0839 0.1545-0.7539 0.6465l1.666 2.4004c0.1913 0.2756 0.5944 0.2883 0.8027 0.0254 0.1663-0.2099 0.4414-0.6778 0.9414-0.6778s0.7929 0.4907 0.9414 0.6777c0.175 0.2204 0.4973 0.2531 0.7129 0.0723l1.668-1.4004c0.4408-0.3741 6e-4 -1.0735-0.5273-0.8379l-1.295 0.5821v-1.7266c2e-4 -0.2823-0.2334-0.5087-0.5156-0.5z" fill="#e3d042"/>
<path d="m5 6-2.924 5.924c-0.077 0.077-0.163 0.786-0.163 0.94 0 0.538 0.471 0.136 0.778 0.136h9.618c0.384 0 0.779 0.36 0.779-0.178 0-0.154-0.087-0.744-0.164-0.898l-2.924-5.924c-0.5 0-1 0.5-1 1v0.5c0 0.277-0.223 0.5-0.5 0.5s-0.5-0.223-0.5-0.5v-0.5c0-0.276-0.224-0.5-0.5-0.5s-0.5 0.224-0.5 0.5v2c0 0.277-0.223 0.5-0.5 0.5s-0.5-0.223-0.5-0.5v-2c0-0.5-0.5-1-1-1z" fill="#b27a59"/>
</g>
</svg>
