<?xml version="1.0" encoding="UTF-8"?>
<!DOCTYPE svg PUBLIC "-//W3C//DTD SVG 1.1//EN" "http://www.w3.org/Graphics/SVG/1.1/DTD/svg11.dtd">
<svg xmlns="http://www.w3.org/2000/svg" version="1.1" width="625px" height="625px" style="shape-rendering:geometricPrecision; text-rendering:geometricPrecision; image-rendering:optimizeQuality; fill-rule:evenodd; clip-rule:evenodd" xmlns:xlink="http://www.w3.org/1999/xlink">
<g><path style="opacity:1" fill="#603b00" d="M -0.5,-0.5 C 207.833,-0.5 416.167,-0.5 624.5,-0.5C 624.5,207.833 624.5,416.167 624.5,624.5C 416.167,624.5 207.833,624.5 -0.5,624.5C -0.5,416.167 -0.5,207.833 -0.5,-0.5 Z"/></g>
<g><path style="opacity:1" fill="#127283" d="M 178.5,224.5 C 191.837,224.333 205.171,224.5 218.5,225C 234.593,228.686 239.427,238.186 233,253.5C 231.457,255.378 229.624,256.878 227.5,258C 237.42,263.693 240.92,272.193 238,283.5C 235.762,290.07 231.262,294.237 224.5,296C 209.225,297.435 193.891,297.935 178.5,297.5C 178.5,273.167 178.5,248.833 178.5,224.5 Z"/></g>
<g><path style="opacity:1" fill="#0e7284" d="M 254.5,224.5 C 260.833,224.5 267.167,224.5 273.5,224.5C 273.5,244.167 273.5,263.833 273.5,283.5C 284.5,283.5 295.5,283.5 306.5,283.5C 306.5,288.167 306.5,292.833 306.5,297.5C 289.167,297.5 271.833,297.5 254.5,297.5C 254.5,273.167 254.5,248.833 254.5,224.5 Z"/></g>
<g><path style="opacity:1" fill="#127283" d="M 314.5,224.5 C 320.833,224.5 327.167,224.5 333.5,224.5C 333.102,242.204 333.602,259.871 335,277.5C 339.946,285.026 346.446,286.526 354.5,282C 355.46,280.581 356.293,279.081 357,277.5C 358.43,259.881 358.93,242.214 358.5,224.5C 364.833,224.5 371.167,224.5 377.5,224.5C 377.921,243.541 377.421,262.541 376,281.5C 369.939,294.286 359.772,299.952 345.5,298.5C 328.979,299.795 318.812,292.461 315,276.5C 314.5,259.17 314.333,241.837 314.5,224.5 Z"/></g>
<g><path style="opacity:1" fill="#0d7284" d="M 395.5,224.5 C 412.5,224.5 429.5,224.5 446.5,224.5C 446.5,229.167 446.5,233.833 446.5,238.5C 435.833,238.5 425.167,238.5 414.5,238.5C 414.5,243.167 414.5,247.833 414.5,252.5C 424.5,252.5 434.5,252.5 444.5,252.5C 444.5,257.167 444.5,261.833 444.5,266.5C 434.5,266.5 424.5,266.5 414.5,266.5C 414.5,272.167 414.5,277.833 414.5,283.5C 425.5,283.5 436.5,283.5 447.5,283.5C 447.5,288.167 447.5,292.833 447.5,297.5C 430.167,297.5 412.833,297.5 395.5,297.5C 395.5,273.167 395.5,248.833 395.5,224.5 Z"/></g>
<g><path style="opacity:1" fill="#603b01" d="M 197.5,237.5 C 202.93,237.161 208.264,237.661 213.5,239C 217.5,243 217.5,247 213.5,251C 208.264,252.339 202.93,252.839 197.5,252.5C 197.5,247.5 197.5,242.5 197.5,237.5 Z"/></g>
<g><path style="opacity:1" fill="#603b01" d="M 197.5,265.5 C 203.577,265.196 209.577,265.696 215.5,267C 220.765,272.26 220.765,277.593 215.5,283C 209.577,284.304 203.577,284.804 197.5,284.5C 197.5,278.167 197.5,271.833 197.5,265.5 Z"/></g>
</svg>
