<?xml version="1.0" encoding="UTF-8"?>
<!DOCTYPE svg PUBLIC "-//W3C//DTD SVG 1.1//EN" "http://www.w3.org/Graphics/SVG/1.1/DTD/svg11.dtd">
<svg xmlns="http://www.w3.org/2000/svg" version="1.1" width="625px" height="625px" style="shape-rendering:geometricPrecision; text-rendering:geometricPrecision; image-rendering:optimizeQuality; fill-rule:evenodd; clip-rule:evenodd" xmlns:xlink="http://www.w3.org/1999/xlink">
<g><path style="opacity:1" fill="#613a00" d="M -0.5,-0.5 C 207.833,-0.5 416.167,-0.5 624.5,-0.5C 624.5,207.833 624.5,416.167 624.5,624.5C 416.167,624.5 207.833,624.5 -0.5,624.5C -0.5,416.167 -0.5,207.833 -0.5,-0.5 Z"/></g>
<g><path style="opacity:1" fill="#c91d1c" d="M 206.5,224.5 C 219.504,224.333 232.504,224.5 245.5,225C 260.589,228.337 266.089,237.504 262,252.5C 259.753,257.712 255.92,261.212 250.5,263C 255.333,265.167 258.833,268.667 261,273.5C 264.977,281.287 268.811,289.121 272.5,297C 265.833,297.667 259.167,297.667 252.5,297C 248.539,289.578 244.706,282.078 241,274.5C 236.779,270.077 231.613,268.41 225.5,269.5C 225.5,278.833 225.5,288.167 225.5,297.5C 219.167,297.5 212.833,297.5 206.5,297.5C 206.5,273.167 206.5,248.833 206.5,224.5 Z"/></g>
<g><path style="opacity:1" fill="#ca1d1c" d="M 283.5,224.5 C 300.5,224.5 317.5,224.5 334.5,224.5C 334.5,229.167 334.5,233.833 334.5,238.5C 323.833,238.5 313.167,238.5 302.5,238.5C 302.5,243.167 302.5,247.833 302.5,252.5C 312.5,252.5 322.5,252.5 332.5,252.5C 332.5,257.167 332.5,261.833 332.5,266.5C 322.5,266.5 312.5,266.5 302.5,266.5C 302.5,272.167 302.5,277.833 302.5,283.5C 313.5,283.5 324.5,283.5 335.5,283.5C 335.5,288.167 335.5,292.833 335.5,297.5C 318.167,297.5 300.833,297.5 283.5,297.5C 283.5,273.167 283.5,248.833 283.5,224.5 Z"/></g>
<g><path style="opacity:1" fill="#c91e1c" d="M 351.5,224.5 C 363.838,224.333 376.171,224.5 388.5,225C 409.075,228.24 419.742,240.24 420.5,261C 419.612,282.223 408.612,294.223 387.5,297C 375.505,297.5 363.505,297.667 351.5,297.5C 351.5,273.167 351.5,248.833 351.5,224.5 Z"/></g>
<g><path style="opacity:1" fill="#623a00" d="M 225.5,237.5 C 230.58,237.25 235.58,237.75 240.5,239C 245.669,244.226 245.669,249.56 240.5,255C 235.58,256.25 230.58,256.75 225.5,256.5C 225.5,250.167 225.5,243.833 225.5,237.5 Z"/></g>
<g><path style="opacity:1" fill="#613a00" d="M 370.5,238.5 C 393.07,236.236 402.904,246.236 400,268.5C 398.167,275.667 393.667,280.167 386.5,282C 381.22,283.095 375.887,283.595 370.5,283.5C 370.5,268.5 370.5,253.5 370.5,238.5 Z"/></g>
</svg>
